<svg width="64" height="36" viewBox="0 0 64 36" fill="none" xmlns="http://www.w3.org/2000/svg">
<path d="M0 0H64V32C64 33.0609 63.5786 34.0783 62.8284 34.8284C62.0783 35.5786 61.0609 36 60 36H4C2.93913 36 1.92172 35.5786 1.17157 34.8284C0.421427 34.0783 0 33.0609 0 32V0ZM8 18C8 20.6522 9.05357 23.1957 10.9289 25.0711C12.8043 26.9464 15.3478 28 18 28C20.6522 28 23.1957 26.9464 25.0711 25.0711C26.9464 23.1957 28 20.6522 28 18C28 15.3478 26.9464 12.8043 25.0711 10.9289C23.1957 9.05357 20.6522 8 18 8C15.3478 8 12.8043 9.05357 10.9289 10.9289C9.05357 12.8043 8 15.3478 8 18ZM36 18C36 20.6522 37.0536 23.1957 38.9289 25.0711C40.8043 26.9464 43.3478 28 46 28C48.6522 28 51.1957 26.9464 53.0711 25.0711C54.9464 23.1957 56 20.6522 56 18C56 15.3478 54.9464 12.8043 53.0711 10.9289C51.1957 9.05357 48.6522 8 46 8C43.3478 8 40.8043 9.05357 38.9289 10.9289C37.0536 12.8043 36 15.3478 36 18Z" fill="#F5EDED"/>
</svg>
